# Blender v2.74 (sub 0) OBJ File: ''
# www.blender.org
mtllib icosphere_hole_blender.mtl
o Icosphere
v 0.000000 -1.000000 0.000000
v 0.723607 -0.447220 0.525725
v -0.276388 -0.447220 0.850649
v -0.894426 -0.447216 0.000000
v -0.276388 -0.447220 -0.850649
v 0.723607 -0.447220 -0.525725
v 0.276388 0.447220 0.850649
v -0.723607 0.447220 0.525725
v -0.723607 0.447220 -0.525725
v 0.276388 0.447220 -0.850649
v 0.000000 1.000000 0.000000
v -0.162456 -0.850654 0.499995
v 0.425323 -0.850654 0.309011
v 0.262869 -0.525738 0.809012
v 0.850648 -0.525736 0.000000
v 0.425323 -0.850654 -0.309011
v -0.525730 -0.850652 0.000000
v -0.688189 -0.525736 0.499997
v -0.162456 -0.850654 -0.499995
v -0.688189 -0.525736 -0.499997
v 0.262869 -0.525738 -0.809012
v 0.951058 0.000000 0.309013
v 0.951058 0.000000 -0.309013
v 0.000000 0.000000 1.000000
v 0.587786 0.000000 0.809017
v -0.951058 0.000000 0.309013
v -0.587786 0.000000 0.809017
v -0.587786 0.000000 -0.809017
v -0.951058 0.000000 -0.309013
v 0.587786 0.000000 -0.809017
v 0.000000 0.000000 -1.000000
v 0.688189 0.525736 0.499997
v -0.262869 0.525738 0.809012
v -0.850648 0.525736 0.000000
v -0.262869 0.525738 -0.809012
v 0.688189 0.525736 -0.499997
v 0.162456 0.850654 0.499995
v 0.525730 0.850652 0.000000
v -0.425323 0.850654 0.309011
v -0.425323 0.850654 -0.309011
v 0.162456 0.850654 -0.499995
v -0.033927 0.187606 -0.196938
v 0.758537 0.194224 0.531324
v 0.461728 0.683834 0.461589
vn 0.102400 -0.943500 0.315100
vn 0.700200 -0.661700 0.268000
vn -0.268000 -0.943500 0.194700
vn -0.268000 -0.943500 -0.194700
vn 0.102400 -0.943500 -0.315100
vn 0.905000 -0.330400 0.268000
vn 0.024700 -0.330400 0.943500
vn -0.889700 -0.330400 0.315100
vn -0.574600 -0.330400 -0.748800
vn 0.534600 -0.330400 -0.777900
vn 0.802600 -0.125600 0.583100
vn -0.306600 -0.125600 0.943500
vn -0.992100 -0.125600 0.000000
vn -0.306600 -0.125600 -0.943500
vn 0.802600 -0.125600 -0.583100
vn 0.408900 0.661700 0.628400
vn -0.471300 0.661700 0.583100
vn -0.700200 0.661700 -0.268000
vn 0.038500 0.661700 -0.748800
vn 0.268000 0.943500 -0.194700
vn 0.491100 0.794700 -0.356800
vn 0.408900 0.661700 -0.628400
vn -0.102400 0.943500 -0.315100
vn -0.187600 0.794700 -0.577300
vn -0.471300 0.661700 -0.583100
vn -0.331300 0.943500 0.000000
vn -0.607100 0.794700 0.000000
vn -0.700200 0.661700 0.268000
vn -0.102400 0.943500 0.315100
vn -0.187600 0.794700 0.577300
vn 0.038500 0.661700 0.748800
vn 0.268000 0.943500 0.194700
vn 0.491100 0.794700 0.356800
vn 0.794700 0.187600 -0.577300
vn 0.574600 0.330400 -0.748800
vn -0.024700 0.330400 -0.943500
vn -0.303500 0.187600 -0.934200
vn -0.534600 0.330400 -0.777900
vn -0.905000 0.330400 -0.268000
vn -0.982200 0.187600 0.000000
vn -0.905000 0.330400 0.268000
vn -0.534600 0.330400 0.777900
vn -0.303500 0.187600 0.934200
vn -0.024700 0.330400 0.943500
vn 0.574600 0.330400 0.748800
vn 0.794700 0.187600 0.577300
vn 0.306600 0.125600 -0.943500
vn 0.303500 -0.187600 -0.934200
vn 0.024700 -0.330400 -0.943500
vn -0.802600 0.125600 -0.583100
vn -0.794700 -0.187600 -0.577300
vn -0.889700 -0.330400 -0.315100
vn -0.802600 0.125600 0.583100
vn -0.794700 -0.187600 0.577300
vn -0.574600 -0.330400 0.748800
vn 0.306600 0.125600 0.943500
vn 0.303500 -0.187600 0.934200
vn 0.534600 -0.330400 0.777900
vn 0.982200 -0.187600 0.000000
vn 0.905000 -0.330400 -0.268000
vn 0.471300 -0.661700 -0.583100
vn 0.187600 -0.794700 -0.577300
vn -0.038500 -0.661700 -0.748800
vn -0.408900 -0.661700 -0.628400
vn -0.491100 -0.794700 -0.356800
vn -0.724000 -0.661700 -0.194700
vn -0.724000 -0.661700 0.194700
vn -0.491100 -0.794700 0.356800
vn -0.408900 -0.661700 0.628400
vn 0.700200 -0.661700 -0.268000
vn 0.607100 -0.794700 0.000000
vn 0.331300 -0.943500 0.000000
vn -0.038500 -0.661700 0.748800
vn 0.187600 -0.794700 0.577300
vn 0.471300 -0.661700 0.583100
usemtl None
s off
f 1//1 13//1 12//1
f 2//2 13//2 15//2
f 1//3 12//3 17//3
f 1//4 17//4 19//4
f 1//5 19//5 16//5
f 2//6 15//6 22//6
f 3//7 14//7 24//7
f 4//8 18//8 26//8
f 5//9 20//9 28//9
f 6//10 21//10 30//10
f 2//11 22//11 25//11
f 3//12 24//12 27//12
f 4//13 26//13 29//13
f 5//14 28//14 31//14
f 6//15 30//15 23//15
f 7//16 32//16 37//16
f 8//17 33//17 39//17
f 9//18 34//18 40//18
f 10//19 35//19 41//19
f 38//20 41//20 11//20
f 38//21 36//21 41//21
f 36//22 10//22 41//22
f 41//23 40//23 11//23
f 41//24 35//24 40//24
f 35//25 9//25 40//25
f 40//26 39//26 11//26
f 40//27 34//27 39//27
f 34//28 8//28 39//28
f 39//29 37//29 11//29
f 39//30 33//30 37//30
f 33//31 7//31 37//31
f 37//32 38//32 11//32
f 37//33 32//33 38//33
f 23//34 30//34 36//34
f 30//35 10//35 36//35
f 31//36 35//36 10//36
f 31//37 28//37 35//37
f 28//38 9//38 35//38
f 29//39 34//39 9//39
f 29//40 26//40 34//40
f 26//41 8//41 34//41
f 27//42 33//42 8//42
f 27//43 24//43 33//43
f 24//44 7//44 33//44
f 25//45 32//45 7//45
f 25//46 22//46 32//46
f 30//47 31//47 10//47
f 30//48 21//48 31//48
f 21//49 5//49 31//49
f 28//50 29//50 9//50
f 28//51 20//51 29//51
f 20//52 4//52 29//52
f 26//53 27//53 8//53
f 26//54 18//54 27//54
f 18//55 3//55 27//55
f 24//56 25//56 7//56
f 24//57 14//57 25//57
f 14//58 2//58 25//58
f 22//59 15//59 23//59
f 15//60 6//60 23//60
f 16//61 21//61 6//61
f 16//62 19//62 21//62
f 19//63 5//63 21//63
f 19//64 20//64 5//64
f 19//65 17//65 20//65
f 17//66 4//66 20//66
f 17//67 18//67 4//67
f 17//68 12//68 18//68
f 12//69 3//69 18//69
f 15//70 16//70 6//70
f 15//71 13//71 16//71
f 13//72 1//72 16//72
f 12//73 14//73 3//73
f 12//74 13//74 14//74
f 13//75 2//75 14//75
