####
#
# OBJ File Generated by Meshlab
#
####
# Object icosphere_hole.obj
#
# Vertices: 44
# Faces: 75
#
####
vn -0.000006 -5.669957 -0.000000
v 0.000000 -1.000000 0.000000
vn 4.102818 -2.535702 2.980841
v 0.723607 -0.447220 0.525725
vn -1.567112 -2.535706 4.823132
v -0.276388 -0.447220 0.850649
vn -5.071351 -2.535689 -0.000000
v -0.894426 -0.447216 0.000000
vn -1.567112 -2.535706 -4.823132
v -0.276388 -0.447220 -0.850649
vn 4.102818 -2.535702 -2.980841
v 0.723607 -0.447220 -0.525725
vn 1.567112 2.535705 4.823132
v 0.276388 0.447220 0.850649
vn -4.102818 2.535702 2.980841
v -0.723607 0.447220 0.525725
vn -4.102818 2.535702 -2.980841
v -0.723607 0.447220 -0.525725
vn 1.567112 2.535705 -4.823132
v 0.276388 0.447220 -0.850649
vn 0.000006 5.669957 0.000000
v 0.000000 1.000000 0.000000
vn -0.912504 -4.778020 2.808420
v -0.162456 -0.850654 0.499995
vn 2.388992 -4.778021 1.735688
v 0.425323 -0.850654 0.309011
vn 1.476499 -2.952989 4.544118
v 0.262869 -0.525738 0.809012
vn 4.777989 -2.952986 0.000000
v 0.850648 -0.525736 0.000000
vn 2.388992 -4.778021 -1.735688
v 0.425323 -0.850654 -0.309011
vn -2.952957 -4.778003 0.000000
v -0.525730 -0.850652 0.000000
vn -3.865470 -2.952983 2.808430
v -0.688189 -0.525736 0.499997
vn -0.912504 -4.778019 -2.808420
v -0.162456 -0.850654 -0.499995
vn -3.865470 -2.952983 -2.808430
v -0.688189 -0.525736 -0.499997
vn 1.476499 -2.952989 -4.544117
v 0.262869 -0.525738 -0.809012
vn 3.516901 -0.442269 1.430103
v 0.951058 0.000000 0.309013
vn 3.516901 -0.442269 -1.430103
v 0.951058 0.000000 -0.309013
vn -0.000000 -0.000000 5.616864
v 0.000000 0.000000 1.000000
vn 3.301511 0.000003 4.544130
v 0.587786 0.000000 0.809017
vn -5.341961 0.000000 1.735699
v -0.951058 0.000000 0.309013
vn -3.301511 -0.000003 4.544130
v -0.587786 0.000000 0.809017
vn -3.301511 -0.000003 -4.544130
v -0.587786 0.000000 -0.809017
vn -5.341962 0.000000 -1.735699
v -0.951058 0.000000 -0.309013
vn 3.301512 0.000003 -4.544130
v 0.587786 0.000000 -0.809017
vn -0.000000 -0.000000 -5.616864
v 0.000000 0.000000 -1.000000
vn 2.300366 1.990800 2.313964
v 0.688189 0.525736 0.499997
vn -1.476499 2.952988 4.544118
v -0.262869 0.525738 0.809012
vn -4.777989 2.952985 0.000000
v -0.850648 0.525736 0.000000
vn -1.476499 2.952988 -4.544118
v -0.262869 0.525738 -0.809012
vn 2.300366 1.990800 -2.313964
v 0.688189 0.525736 -0.499997
vn 0.912504 4.778019 2.808420
v 0.162456 0.850654 0.499995
vn 1.548512 3.494495 0.000000
v 0.525730 0.850652 0.000000
vn -2.388993 4.778021 1.735688
v -0.425323 0.850654 0.309011
vn -2.388992 4.778021 -1.735688
v -0.425323 0.850654 -0.309011
vn 0.912504 4.778019 -2.808420
v 0.162456 0.850654 -0.499995
vn 0.000000 0.000000 0.000000
v -0.033927 0.187606 -0.196938
vn 0.000000 0.000000 0.000000
v 0.758537 0.194224 0.531324
vn 0.000000 0.000000 0.000000
v 0.461728 0.683834 0.461589
# 44 vertices, 0 vertices normals

f 1//1 13//13 12//12
f 2//2 13//13 15//15
f 1//1 12//12 17//17
f 1//1 17//17 19//19
f 1//1 19//19 16//16
f 2//2 15//15 22//22
f 3//3 14//14 24//24
f 4//4 18//18 26//26
f 5//5 20//20 28//28
f 6//6 21//21 30//30
f 2//2 22//22 25//25
f 3//3 24//24 27//27
f 4//4 26//26 29//29
f 5//5 28//28 31//31
f 6//6 30//30 23//23
f 7//7 32//32 37//37
f 8//8 33//33 39//39
f 9//9 34//34 40//40
f 10//10 35//35 41//41
f 38//38 41//41 11//11
f 38//38 36//36 41//41
f 36//36 10//10 41//41
f 41//41 40//40 11//11
f 41//41 35//35 40//40
f 35//35 9//9 40//40
f 40//40 39//39 11//11
f 40//40 34//34 39//39
f 34//34 8//8 39//39
f 39//39 37//37 11//11
f 39//39 33//33 37//37
f 33//33 7//7 37//37
f 37//37 38//38 11//11
f 37//37 32//32 38//38
f 23//23 30//30 36//36
f 30//30 10//10 36//36
f 31//31 35//35 10//10
f 31//31 28//28 35//35
f 28//28 9//9 35//35
f 29//29 34//34 9//9
f 29//29 26//26 34//34
f 26//26 8//8 34//34
f 27//27 33//33 8//8
f 27//27 24//24 33//33
f 24//24 7//7 33//33
f 25//25 32//32 7//7
f 25//25 22//22 32//32
f 30//30 31//31 10//10
f 30//30 21//21 31//31
f 21//21 5//5 31//31
f 28//28 29//29 9//9
f 28//28 20//20 29//29
f 20//20 4//4 29//29
f 26//26 27//27 8//8
f 26//26 18//18 27//27
f 18//18 3//3 27//27
f 24//24 25//25 7//7
f 24//24 14//14 25//25
f 14//14 2//2 25//25
f 22//22 15//15 23//23
f 15//15 6//6 23//23
f 16//16 21//21 6//6
f 16//16 19//19 21//21
f 19//19 5//5 21//21
f 19//19 20//20 5//5
f 19//19 17//17 20//20
f 17//17 4//4 20//20
f 17//17 18//18 4//4
f 17//17 12//12 18//18
f 12//12 3//3 18//18
f 15//15 16//16 6//6
f 15//15 13//13 16//16
f 13//13 1//1 16//16
f 12//12 14//14 3//3
f 12//12 13//13 14//14
f 13//13 2//2 14//14
# 75 faces, 0 coords texture

# End of File