####
#
# OBJ File Generated by Meshlab
#
####
# Object ObjConnexe.obj
#
# Vertices: 50
# Faces: 92
#
####
vn -0.000001 -1.314304 0.000000
v 0.796563 -1.244221 -1.035346
vn 0.951060 -0.587788 0.690981
v 1.520171 -0.691441 -0.509621
vn -0.363272 -0.587794 1.118042
v 0.520175 -0.691441 -0.184697
vn -1.175565 -0.587784 0.000000
v -0.097863 -0.691437 -1.035346
vn -0.363273 -0.587794 -1.118042
v 0.520175 -0.691441 -1.885996
vn 0.951060 -0.587788 -0.690981
v 1.520171 -0.691441 -1.561072
vn 0.363272 0.587794 1.118042
v 1.072951 0.202999 -0.184697
vn -0.951060 0.587788 0.690981
v 0.072956 0.202998 -0.509621
vn -0.951060 0.587788 -0.690981
v 0.072956 0.202998 -1.561072
vn 0.363272 0.587794 -1.118042
v 1.072951 0.202999 -1.885996
vn 1.175565 0.587785 0.000000
v 1.690990 0.202995 -1.035346
vn 0.000002 1.314304 0.000000
v 0.796563 0.755779 -1.035346
vn -0.271222 -1.420149 0.834736
v 0.634108 -1.094876 -0.535351
vn 0.710066 -1.420138 0.515890
v 1.221886 -1.094875 -0.726335
vn 0.438860 -0.877711 1.350651
v 1.059432 -0.769959 -0.226335
vn 1.420146 -0.877701 0.000000
v 1.647211 -0.769957 -1.035346
vn 0.710067 -1.420139 -0.515890
v 1.221886 -1.094875 -1.344358
vn -0.877696 -1.420150 0.000000
v 0.270834 -1.094873 -1.035346
vn -1.148936 -0.877711 0.834753
v 0.108374 -0.769957 -0.535349
vn -0.271222 -1.420150 -0.834736
v 0.634108 -1.094876 -1.535342
vn -1.148937 -0.877712 -0.834753
v 0.108374 -0.769957 -1.535343
vn 0.438859 -0.877710 -1.350651
v 1.059432 -0.769959 -1.844358
vn 1.587791 -0.000001 0.515907
v 1.747621 -0.244221 -0.726334
vn 1.587792 -0.000001 -0.515907
v 1.747621 -0.244221 -1.344359
vn -0.000000 -0.000000 1.669517
v 0.796563 -0.244221 -0.035346
vn 0.981323 0.000000 1.350671
v 1.384349 -0.244221 -0.226330
vn -1.587790 0.000001 0.515907
v -0.154494 -0.244221 -0.726334
vn -0.981323 0.000000 1.350669
v 0.208778 -0.244221 -0.226330
vn -0.981322 -0.000000 -1.350669
v 0.208778 -0.244221 -1.844363
vn -1.587791 0.000001 -0.515907
v -0.154494 -0.244221 -1.344359
vn 0.981323 0.000001 -1.350671
v 1.384349 -0.244221 -1.844363
vn 0.000000 -0.000000 -1.669517
v 0.796563 -0.244221 -2.035346
vn 1.148935 0.877711 0.834754
v 1.484753 0.281515 -0.535349
vn -0.438860 0.877710 1.350648
v 0.533695 0.281517 -0.226335
vn -1.420146 0.877701 0.000000
v -0.054084 0.281515 -1.035346
vn -0.438859 0.877709 -1.350648
v 0.533695 0.281517 -1.844358
vn 1.148936 0.877712 -0.834754
v 1.484753 0.281515 -1.535343
vn 0.271222 1.420149 0.834736
v 0.959019 0.606433 -0.535351
vn 0.877695 1.420150 -0.000000
v 1.322293 0.606431 -1.035346
vn -0.710066 1.420138 0.515891
v 0.371241 0.606433 -0.726335
vn -0.710067 1.420138 -0.515891
v 0.371241 0.606433 -1.344358
vn 0.271222 1.420150 -0.834736
v 0.959019 0.606433 -1.535342
vn 2.000000 -2.000000 -1.000000
v -0.122532 -0.441942 0.664965
vn 0.999999 -1.000001 2.000000
v -0.122532 -0.441942 2.664965
vn -2.000000 -2.000001 1.000000
v -2.122532 -0.441942 2.664965
vn -1.000000 -1.000000 -2.000000
v -2.122531 -0.441942 0.664965
vn 1.000000 2.000000 -2.000000
v -0.122531 1.558058 0.664966
vn 2.000000 0.999999 1.000000
v -0.122532 1.558058 2.664966
vn -1.000001 1.999999 2.000000
v -2.122532 1.558058 2.664965
vn -2.000000 1.000000 -1.000000
v -2.122532 1.558058 0.664965
# 50 vertices, 0 vertices normals

f 1//1 14//14 13//13
f 2//2 14//14 16//16
f 1//1 13//13 18//18
f 1//1 18//18 20//20
f 1//1 20//20 17//17
f 2//2 16//16 23//23
f 3//3 15//15 25//25
f 4//4 19//19 27//27
f 5//5 21//21 29//29
f 6//6 22//22 31//31
f 2//2 23//23 26//26
f 3//3 25//25 28//28
f 4//4 27//27 30//30
f 5//5 29//29 32//32
f 6//6 31//31 24//24
f 7//7 33//33 38//38
f 8//8 34//34 40//40
f 9//9 35//35 41//41
f 10//10 36//36 42//42
f 11//11 37//37 39//39
f 39//39 42//42 12//12
f 39//39 37//37 42//42
f 37//37 10//10 42//42
f 42//42 41//41 12//12
f 42//42 36//36 41//41
f 36//36 9//9 41//41
f 41//41 40//40 12//12
f 41//41 35//35 40//40
f 35//35 8//8 40//40
f 40//40 38//38 12//12
f 40//40 34//34 38//38
f 34//34 7//7 38//38
f 38//38 39//39 12//12
f 38//38 33//33 39//39
f 33//33 11//11 39//39
f 24//24 37//37 11//11
f 24//24 31//31 37//37
f 31//31 10//10 37//37
f 32//32 36//36 10//10
f 32//32 29//29 36//36
f 29//29 9//9 36//36
f 30//30 35//35 9//9
f 30//30 27//27 35//35
f 27//27 8//8 35//35
f 28//28 34//34 8//8
f 28//28 25//25 34//34
f 25//25 7//7 34//34
f 26//26 33//33 7//7
f 26//26 23//23 33//33
f 23//23 11//11 33//33
f 31//31 32//32 10//10
f 31//31 22//22 32//32
f 22//22 5//5 32//32
f 29//29 30//30 9//9
f 29//29 21//21 30//30
f 21//21 4//4 30//30
f 27//27 28//28 8//8
f 27//27 19//19 28//28
f 19//19 3//3 28//28
f 25//25 26//26 7//7
f 25//25 15//15 26//26
f 15//15 2//2 26//26
f 23//23 24//24 11//11
f 23//23 16//16 24//24
f 16//16 6//6 24//24
f 17//17 22//22 6//6
f 17//17 20//20 22//22
f 20//20 5//5 22//22
f 20//20 21//21 5//5
f 20//20 18//18 21//21
f 18//18 4//4 21//21
f 18//18 19//19 4//4
f 18//18 13//13 19//19
f 13//13 3//3 19//19
f 16//16 17//17 6//6
f 16//16 14//14 17//17
f 14//14 1//1 17//17
f 13//13 15//15 3//3
f 13//13 14//14 15//15
f 14//14 2//2 15//15
f 43//43 44//44 45//45
f 43//43 45//45 46//46
f 47//47 50//50 49//49
f 47//47 49//49 48//48
f 43//43 47//47 48//48
f 43//43 48//48 44//44
f 44//44 48//48 49//49
f 44//44 49//49 45//45
f 45//45 49//49 50//50
f 45//45 50//50 46//46
f 47//47 43//43 46//46
f 47//47 46//46 50//50
# 92 faces, 0 coords texture

# End of File
