####
#
# OBJ File Generated by Meshlab
#
####
# Object twoCubes.obj
#
# Vertices: 16
# Faces: 24
#
####
vn -1.000000 -2.000000 2.000000
v -0.940025 -1.328796 -0.183965
vn -2.000000 -1.000000 -1.000000
v -0.940025 -1.328796 -2.183965
vn 1.000000 -2.000000 -2.000000
v 1.059975 -1.328796 -2.183965
vn 2.000000 -1.000000 1.000000
v 1.059975 -1.328796 -0.183965
vn -2.000000 1.000000 1.000000
v -0.940025 0.671204 -0.183965
vn -1.000000 2.000000 -2.000000
v -0.940025 0.671204 -2.183965
vn 2.000000 1.000000 -1.000000
v 1.059975 0.671204 -2.183965
vn 1.000000 2.000000 2.000000
v 1.059975 0.671204 -0.183965
vn 2.000000 -2.000000 -0.999999
v 0.214405 -0.848276 0.591627
vn 0.999999 -1.000001 2.000000
v 0.214405 -0.848276 2.591627
vn -2.000000 -2.000000 1.000000
v -1.785595 -0.848276 2.591627
vn -1.000000 -1.000000 -2.000000
v -1.785595 -0.848276 0.591627
vn 1.000000 2.000000 -2.000000
v 0.214406 1.151724 0.591628
vn 2.000000 1.000000 1.000001
v 0.214404 1.151724 2.591628
vn -1.000001 1.999999 2.000000
v -1.785595 1.151724 2.591627
vn -2.000000 1.000000 -1.000000
v -1.785595 1.151724 0.591627
# 16 vertices, 0 vertices normals

f 5//5 6//6 2//2
f 5//5 2//2 1//1
f 6//6 7//7 3//3
f 6//6 3//3 2//2
f 7//7 8//8 4//4
f 7//7 4//4 3//3
f 8//8 5//5 1//1
f 8//8 1//1 4//4
f 1//1 2//2 3//3
f 1//1 3//3 4//4
f 8//8 7//7 6//6
f 8//8 6//6 5//5
f 9//9 10//10 11//11
f 9//9 11//11 12//12
f 13//13 16//16 15//15
f 13//13 15//15 14//14
f 9//9 13//13 14//14
f 9//9 14//14 10//10
f 10//10 14//14 15//15
f 10//10 15//15 11//11
f 11//11 15//15 16//16
f 11//11 16//16 12//12
f 13//13 9//9 12//12
f 13//13 12//12 16//16
# 24 faces, 0 coords texture

# End of File
